G04 Layer: BoardOutline*
G04 EasyEDA v6.1.51, Thu, 20 Jun 2019 01:18:00 GMT*
G04 13a2db1834074896a0e2ff3160756fa7,fc2bddda97e04f84aaf3dc2e9cb20b51,10*
G04 Gerber Generator version 0.2*
G04 Scale: 100 percent, Rotated: No, Reflected: No *
G04 Dimensions in millimeters *
G04 leading zeros omitted , absolute positions ,3 integer and 3 decimal *
%FSLAX33Y33*%
%MOMM*%
G90*
G71D02*

%ADD10C,0.254000*%
G54D10*
G01X0Y27686D02*
G01X254Y31877D01*
G01X1143Y35433D01*
G01X2032Y36957D01*
G01X4953Y38862D01*
G01X10033Y41148D01*
G01X17272Y43434D01*
G01X22479Y44450D01*
G01X25019Y44831D01*
G01X28702Y44958D01*
G01X31369Y44577D01*
G01X32067Y44386D01*
G01X33990Y43710D01*
G01X35052Y43180D01*
G01X36576Y42164D01*
G01X36690Y42037D01*
G01X38628Y39669D01*
G01X41402Y43307D01*
G01X38989Y45466D01*
G01X38735Y46101D01*
G01X38862Y46482D01*
G01X39497Y46736D01*
G01X40894Y46228D01*
G01X43009Y45168D01*
G01X43180Y47117D01*
G01X43688Y47117D01*
G01X44323Y46609D01*
G01X44874Y46332D01*
G01X45720Y46355D01*
G01X46228Y46482D01*
G01X46771Y46118D01*
G01X47160Y45267D01*
G01X47371Y48006D01*
G01X47625Y49022D01*
G01X48387Y49403D01*
G01X49149Y48260D01*
G01X49403Y51435D01*
G01X49530Y52197D01*
G01X49911Y52705D01*
G01X50673Y52578D01*
G01X50800Y51562D01*
G01X51181Y51562D01*
G01X51435Y52324D01*
G01X51435Y53848D01*
G01X51562Y54483D01*
G01X51915Y54716D01*
G01X52959Y54737D01*
G01X53248Y55026D01*
G01X53086Y57785D01*
G01X53594Y59944D01*
G01X54864Y61722D01*
G01X55283Y61826D01*
G01X55753Y61722D01*
G01X56134Y61087D01*
G01X56642Y60833D01*
G01X57404Y60706D01*
G01X58044Y60706D01*
G01X59182Y60452D01*
G01X60071Y59563D01*
G01X59961Y57924D01*
G01X55118Y50546D01*
G01X50546Y42799D01*
G01X55499Y39497D01*
G01X54229Y38735D01*
G01X52070Y38989D01*
G01X52705Y38100D01*
G01X52959Y37211D01*
G01X52578Y36703D01*
G01X52070Y36703D01*
G01X51181Y37084D01*
G01X48768Y38481D01*
G01X44084Y31790D01*
G01X42799Y29718D01*
G01X45593Y24257D01*
G01X47244Y21336D01*
G01X49149Y19558D01*
G01X51534Y17873D01*
G01X54978Y16306D01*
G01X59309Y14859D01*
G01X54102Y10795D01*
G01X48641Y7239D01*
G01X46863Y5842D01*
G01X45974Y4826D01*
G01X45720Y4064D01*
G01X46101Y3302D01*
G01X46863Y2540D01*
G01X47371Y1905D01*
G01X47244Y1270D01*
G01X44831Y1651D01*
G01X41656Y2540D01*
G01X38227Y3556D01*
G01X34671Y4572D01*
G01X31623Y4953D01*
G01X29972Y4826D01*
G01X29083Y4572D01*
G01X28448Y3810D01*
G01X28321Y2667D01*
G01X28956Y127D01*
G01X28194Y0D01*
G01X19177Y3683D01*
G01X13589Y6096D01*
G01X8890Y7874D01*
G01X7239Y8255D01*
G01X5715Y8001D01*
G01X5080Y7493D01*
G01X3556Y6096D01*
G01X1524Y12192D01*
G01X1016Y14605D01*
G01X635Y16764D01*
G01X381Y18542D01*
G01X132Y21366D01*
G01X0Y24638D01*
G01X0Y27686D01*

%LPD*%
M00*
M02*
