G04 Layer: BottomSolderMaskLayer*
G04 EasyEDA v6.1.51, Thu, 20 Jun 2019 01:18:00 GMT*
G04 13a2db1834074896a0e2ff3160756fa7,fc2bddda97e04f84aaf3dc2e9cb20b51,10*
G04 Gerber Generator version 0.2*
G04 Scale: 100 percent, Rotated: No, Reflected: No *
G04 Dimensions in millimeters *
G04 leading zeros omitted , absolute positions ,3 integer and 3 decimal *
%FSLAX33Y33*%
%MOMM*%
G90*
G71D02*

%ADD18C,2.003196*%
%ADD19C,1.803197*%

%LPD*%

%LPD*%
G36*
G01X22351Y37655D02*
G01X22296Y37656D01*
G01X22240Y37655D01*
G01X22182Y37652D01*
G01X22121Y37647D01*
G01X22058Y37641D01*
G01X21994Y37632D01*
G01X21926Y37623D01*
G01X21857Y37611D01*
G01X21785Y37598D01*
G01X21711Y37584D01*
G01X21634Y37567D01*
G01X21554Y37550D01*
G01X21472Y37531D01*
G01X21387Y37510D01*
G01X21299Y37488D01*
G01X21209Y37465D01*
G01X21177Y37456D01*
G01X21144Y37447D01*
G01X21112Y37439D01*
G01X21079Y37429D01*
G01X21045Y37420D01*
G01X21011Y37410D01*
G01X20941Y37390D01*
G01X20905Y37380D01*
G01X20869Y37369D01*
G01X20758Y37336D01*
G01X20720Y37324D01*
G01X20642Y37300D01*
G01X20603Y37287D01*
G01X20563Y37275D01*
G01X20523Y37262D01*
G01X20482Y37249D01*
G01X20441Y37235D01*
G01X20399Y37222D01*
G01X20315Y37194D01*
G01X20272Y37179D01*
G01X20228Y37165D01*
G01X20140Y37135D01*
G01X20095Y37120D01*
G01X20050Y37104D01*
G01X20005Y37089D01*
G01X19959Y37073D01*
G01X19912Y37056D01*
G01X19865Y37040D01*
G01X19818Y37023D01*
G01X19722Y36989D01*
G01X19673Y36972D01*
G01X19625Y36954D01*
G01X19425Y36882D01*
G01X19374Y36863D01*
G01X19218Y36806D01*
G01X19166Y36786D01*
G01X19113Y36766D01*
G01X19005Y36726D01*
G01X18951Y36705D01*
G01X18897Y36685D01*
G01X18787Y36643D01*
G01X18731Y36622D01*
G01X18675Y36600D01*
G01X18618Y36578D01*
G01X18562Y36556D01*
G01X18505Y36534D01*
G01X18447Y36512D01*
G01X18389Y36489D01*
G01X18331Y36467D01*
G01X18272Y36444D01*
G01X18213Y36420D01*
G01X18154Y36397D01*
G01X18094Y36374D01*
G01X17974Y36326D01*
G01X17913Y36302D01*
G01X17852Y36277D01*
G01X17791Y36253D01*
G01X17605Y36178D01*
G01X17542Y36152D01*
G01X17479Y36127D01*
G01X17415Y36101D01*
G01X17352Y36075D01*
G01X17288Y36049D01*
G01X17223Y36023D01*
G01X17159Y35996D01*
G01X17094Y35970D01*
G01X17028Y35943D01*
G01X16963Y35916D01*
G01X16897Y35888D01*
G01X16830Y35861D01*
G01X16764Y35833D01*
G01X16630Y35777D01*
G01X16494Y35721D01*
G01X16426Y35692D01*
G01X16358Y35664D01*
G01X16220Y35606D01*
G01X16151Y35576D01*
G01X16082Y35547D01*
G01X16012Y35517D01*
G01X15942Y35488D01*
G01X15871Y35458D01*
G01X15801Y35428D01*
G01X15730Y35397D01*
G01X15659Y35367D01*
G01X15299Y35212D01*
G01X15226Y35181D01*
G01X15153Y35149D01*
G01X15079Y35117D01*
G01X15006Y35085D01*
G01X14858Y35021D01*
G01X14784Y34988D01*
G01X14709Y34956D01*
G01X14484Y34857D01*
G01X14408Y34824D01*
G01X14333Y34790D01*
G01X14257Y34757D01*
G01X14180Y34723D01*
G01X14104Y34689D01*
G01X13873Y34587D01*
G01X13796Y34552D01*
G01X13718Y34518D01*
G01X13641Y34483D01*
G01X13485Y34413D01*
G01X13406Y34378D01*
G01X13328Y34343D01*
G01X13249Y34307D01*
G01X13209Y34289D01*
G01X13168Y34270D01*
G01X13126Y34251D01*
G01X13083Y34232D01*
G01X13040Y34212D01*
G01X12996Y34192D01*
G01X12951Y34171D01*
G01X12905Y34150D01*
G01X12811Y34106D01*
G01X12763Y34084D01*
G01X12714Y34061D01*
G01X12664Y34038D01*
G01X12614Y34014D01*
G01X12563Y33991D01*
G01X12511Y33966D01*
G01X12459Y33942D01*
G01X12406Y33917D01*
G01X12298Y33865D01*
G01X12188Y33813D01*
G01X12131Y33786D01*
G01X12075Y33759D01*
G01X12017Y33732D01*
G01X11901Y33676D01*
G01X11842Y33648D01*
G01X11662Y33561D01*
G01X11601Y33532D01*
G01X11415Y33442D01*
G01X11352Y33411D01*
G01X11288Y33381D01*
G01X11160Y33319D01*
G01X11096Y33287D01*
G01X11031Y33255D01*
G01X10965Y33224D01*
G01X10899Y33191D01*
G01X10767Y33127D01*
G01X10633Y33061D01*
G01X10565Y33028D01*
G01X10498Y32995D01*
G01X10429Y32962D01*
G01X10293Y32894D01*
G01X10155Y32826D01*
G01X10085Y32792D01*
G01X10016Y32758D01*
G01X9946Y32724D01*
G01X9806Y32654D01*
G01X9736Y32620D01*
G01X9666Y32585D01*
G01X9524Y32515D01*
G01X9454Y32480D01*
G01X9383Y32444D01*
G01X9241Y32374D01*
G01X9169Y32338D01*
G01X9098Y32303D01*
G01X9027Y32267D01*
G01X8956Y32232D01*
G01X8884Y32196D01*
G01X8813Y32161D01*
G01X8742Y32125D01*
G01X8670Y32089D01*
G01X8599Y32054D01*
G01X8528Y32018D01*
G01X8456Y31982D01*
G01X8385Y31946D01*
G01X8314Y31911D01*
G01X8172Y31839D01*
G01X8101Y31804D01*
G01X8031Y31768D01*
G01X7960Y31733D01*
G01X7890Y31697D01*
G01X7819Y31662D01*
G01X7749Y31626D01*
G01X7609Y31556D01*
G01X7540Y31521D01*
G01X7470Y31485D01*
G01X7332Y31415D01*
G01X7264Y31381D01*
G01X7195Y31346D01*
G01X7127Y31311D01*
G01X7059Y31277D01*
G01X6992Y31242D01*
G01X6791Y31140D01*
G01X6725Y31106D01*
G01X6659Y31073D01*
G01X6593Y31039D01*
G01X6463Y30973D01*
G01X6271Y30874D01*
G01X6208Y30842D01*
G01X6146Y30809D01*
G01X6083Y30777D01*
G01X6022Y30746D01*
G01X5961Y30714D01*
G01X5900Y30683D01*
G01X5840Y30651D01*
G01X5780Y30621D01*
G01X5721Y30590D01*
G01X5662Y30560D01*
G01X5604Y30529D01*
G01X5546Y30499D01*
G01X5489Y30470D01*
G01X5433Y30440D01*
G01X5377Y30411D01*
G01X5322Y30383D01*
G01X5268Y30354D01*
G01X5214Y30326D01*
G01X5108Y30270D01*
G01X5056Y30243D01*
G01X4954Y30189D01*
G01X4904Y30163D01*
G01X4855Y30137D01*
G01X4807Y30111D01*
G01X4759Y30086D01*
G01X4713Y30061D01*
G01X4666Y30037D01*
G01X4621Y30012D01*
G01X4577Y29989D01*
G01X4533Y29965D01*
G01X4490Y29942D01*
G01X4448Y29919D01*
G01X4366Y29875D01*
G01X4288Y29833D01*
G01X4250Y29812D01*
G01X4178Y29772D01*
G01X4108Y29734D01*
G01X4075Y29716D01*
G01X4043Y29698D01*
G01X4012Y29680D01*
G01X3952Y29646D01*
G01X3924Y29630D01*
G01X3897Y29615D01*
G01X3845Y29585D01*
G01X3821Y29571D01*
G01X3798Y29557D01*
G01X3776Y29544D01*
G01X3755Y29532D01*
G01X3717Y29508D01*
G01X3651Y29467D01*
G01X3587Y29427D01*
G01X3526Y29388D01*
G01X3467Y29350D01*
G01X3410Y29313D01*
G01X3356Y29276D01*
G01X3304Y29241D01*
G01X3254Y29205D01*
G01X3206Y29171D01*
G01X3160Y29136D01*
G01X3116Y29102D01*
G01X3075Y29068D01*
G01X3035Y29035D01*
G01X2997Y29001D01*
G01X2962Y28967D01*
G01X2928Y28933D01*
G01X2896Y28899D01*
G01X2866Y28864D01*
G01X2837Y28829D01*
G01X2811Y28794D01*
G01X2786Y28758D01*
G01X2763Y28721D01*
G01X2742Y28683D01*
G01X2722Y28645D01*
G01X2704Y28605D01*
G01X2687Y28565D01*
G01X2672Y28523D01*
G01X2658Y28480D01*
G01X2646Y28436D01*
G01X2635Y28390D01*
G01X2625Y28343D01*
G01X2617Y28294D01*
G01X2611Y28243D01*
G01X2605Y28191D01*
G01X2601Y28136D01*
G01X2598Y28080D01*
G01X2596Y28022D01*
G01X2595Y27961D01*
G01X2595Y27899D01*
G01X2597Y27833D01*
G01X2599Y27766D01*
G01X2602Y27696D01*
G01X2607Y27623D01*
G01X2612Y27548D01*
G01X2618Y27470D01*
G01X2625Y27389D01*
G01X2633Y27304D01*
G01X2641Y27217D01*
G01X2651Y27127D01*
G01X2661Y27034D01*
G01X2672Y26937D01*
G01X2683Y26836D01*
G01X2691Y26768D01*
G01X2699Y26698D01*
G01X2708Y26628D01*
G01X2718Y26558D01*
G01X2728Y26487D01*
G01X2748Y26343D01*
G01X2759Y26270D01*
G01X2783Y26124D01*
G01X2795Y26050D01*
G01X2821Y25902D01*
G01X2834Y25827D01*
G01X2848Y25752D01*
G01X2862Y25676D01*
G01X2876Y25601D01*
G01X2906Y25449D01*
G01X2921Y25374D01*
G01X2937Y25297D01*
G01X2952Y25221D01*
G01X2969Y25145D01*
G01X2985Y25069D01*
G01X3002Y24993D01*
G01X3019Y24916D01*
G01X3036Y24840D01*
G01X3054Y24764D01*
G01X3071Y24688D01*
G01X3089Y24612D01*
G01X3107Y24537D01*
G01X3126Y24461D01*
G01X3144Y24386D01*
G01X3182Y24236D01*
G01X3201Y24162D01*
G01X3221Y24088D01*
G01X3240Y24014D01*
G01X3260Y23940D01*
G01X3280Y23867D01*
G01X3340Y23651D01*
G01X3360Y23580D01*
G01X3381Y23510D01*
G01X3401Y23440D01*
G01X3422Y23370D01*
G01X3443Y23301D01*
G01X3464Y23233D01*
G01X3485Y23166D01*
G01X3505Y23099D01*
G01X3526Y23033D01*
G01X3548Y22968D01*
G01X3590Y22840D01*
G01X3611Y22777D01*
G01X3632Y22715D01*
G01X3653Y22654D01*
G01X3674Y22594D01*
G01X3695Y22535D01*
G01X3717Y22477D01*
G01X3759Y22363D01*
G01X3780Y22308D01*
G01X3801Y22254D01*
G01X3822Y22201D01*
G01X3842Y22150D01*
G01X3863Y22099D01*
G01X3905Y22001D01*
G01X3925Y21954D01*
G01X3945Y21909D01*
G01X3966Y21864D01*
G01X3986Y21821D01*
G01X4026Y21739D01*
G01X4046Y21700D01*
G01X4065Y21663D01*
G01X4085Y21627D01*
G01X4104Y21592D01*
G01X4123Y21559D01*
G01X4142Y21528D01*
G01X4160Y21498D01*
G01X4179Y21470D01*
G01X4197Y21443D01*
G01X4215Y21418D01*
G01X4233Y21395D01*
G01X4251Y21373D01*
G01X4268Y21353D01*
G01X4285Y21335D01*
G01X4302Y21319D01*
G01X4319Y21304D01*
G01X4330Y21296D01*
G01X4344Y21288D01*
G01X4360Y21281D01*
G01X4379Y21273D01*
G01X4401Y21266D01*
G01X4425Y21259D01*
G01X4451Y21252D01*
G01X4479Y21246D01*
G01X4510Y21240D01*
G01X4543Y21234D01*
G01X4578Y21228D01*
G01X4615Y21223D01*
G01X4655Y21218D01*
G01X4696Y21213D01*
G01X4739Y21208D01*
G01X4784Y21203D01*
G01X4831Y21199D01*
G01X4879Y21195D01*
G01X4930Y21192D01*
G01X4982Y21188D01*
G01X5036Y21185D01*
G01X5091Y21182D01*
G01X5147Y21179D01*
G01X5265Y21175D01*
G01X5326Y21173D01*
G01X5452Y21169D01*
G01X5517Y21168D01*
G01X5583Y21167D01*
G01X5650Y21166D01*
G01X6000Y21166D01*
G01X6146Y21168D01*
G01X6220Y21169D01*
G01X6370Y21173D01*
G01X6446Y21175D01*
G01X6523Y21177D01*
G01X6599Y21179D01*
G01X6677Y21182D01*
G01X6754Y21185D01*
G01X6832Y21188D01*
G01X6910Y21192D01*
G01X6988Y21195D01*
G01X7067Y21199D01*
G01X7145Y21203D01*
G01X7223Y21208D01*
G01X7302Y21212D01*
G01X7458Y21222D01*
G01X7536Y21228D01*
G01X7614Y21233D01*
G01X7692Y21239D01*
G01X7769Y21245D01*
G01X7846Y21252D01*
G01X7922Y21258D01*
G01X7998Y21265D01*
G01X8073Y21272D01*
G01X8148Y21280D01*
G01X8222Y21287D01*
G01X8368Y21303D01*
G01X8440Y21312D01*
G01X8514Y21320D01*
G01X8589Y21329D01*
G01X8663Y21338D01*
G01X8738Y21347D01*
G01X8813Y21357D01*
G01X8889Y21366D01*
G01X8964Y21375D01*
G01X9040Y21385D01*
G01X9116Y21394D01*
G01X9192Y21404D01*
G01X9269Y21414D01*
G01X9345Y21423D01*
G01X9653Y21463D01*
G01X9730Y21474D01*
G01X9808Y21484D01*
G01X9885Y21494D01*
G01X9963Y21505D01*
G01X10041Y21515D01*
G01X10197Y21537D01*
G01X10275Y21547D01*
G01X10433Y21569D01*
G01X10511Y21580D01*
G01X10669Y21602D01*
G01X10748Y21614D01*
G01X10906Y21636D01*
G01X10986Y21648D01*
G01X11065Y21659D01*
G01X11145Y21671D01*
G01X11224Y21682D01*
G01X11944Y21790D01*
G01X12025Y21802D01*
G01X12105Y21815D01*
G01X12185Y21827D01*
G01X12266Y21840D01*
G01X12346Y21852D01*
G01X12427Y21865D01*
G01X12507Y21877D01*
G01X12588Y21890D01*
G01X12668Y21903D01*
G01X12749Y21915D01*
G01X12829Y21928D01*
G01X12991Y21954D01*
G01X13071Y21967D01*
G01X13233Y21993D01*
G01X13313Y22006D01*
G01X13394Y22019D01*
G01X13474Y22033D01*
G01X13555Y22046D01*
G01X13635Y22059D01*
G01X13716Y22073D01*
G01X13796Y22086D01*
G01X13877Y22100D01*
G01X13957Y22113D01*
G01X14037Y22127D01*
G01X14118Y22140D01*
G01X14198Y22154D01*
G01X14278Y22167D01*
G01X14438Y22195D01*
G01X14518Y22208D01*
G01X14838Y22264D01*
G01X14917Y22278D01*
G01X14997Y22292D01*
G01X15076Y22306D01*
G01X15156Y22320D01*
G01X15551Y22390D01*
G01X15630Y22405D01*
G01X15708Y22419D01*
G01X15787Y22433D01*
G01X15865Y22447D01*
G01X15943Y22462D01*
G01X16177Y22504D01*
G01X16255Y22519D01*
G01X16332Y22533D01*
G01X16409Y22548D01*
G01X16487Y22562D01*
G01X16564Y22577D01*
G01X16640Y22591D01*
G01X16717Y22605D01*
G01X16794Y22620D01*
G01X16870Y22634D01*
G01X16946Y22649D01*
G01X17022Y22663D01*
G01X17098Y22678D01*
G01X17173Y22693D01*
G01X17249Y22707D01*
G01X17324Y22722D01*
G01X17399Y22736D01*
G01X17474Y22751D01*
G01X17548Y22765D01*
G01X17623Y22780D01*
G01X17697Y22795D01*
G01X17771Y22809D01*
G01X17844Y22824D01*
G01X17918Y22838D01*
G01X18064Y22868D01*
G01X18137Y22882D01*
G01X18209Y22897D01*
G01X18282Y22912D01*
G01X18354Y22926D01*
G01X18425Y22941D01*
G01X18497Y22955D01*
G01X18639Y22985D01*
G01X18710Y22999D01*
G01X18780Y23014D01*
G01X18850Y23028D01*
G01X18920Y23043D01*
G01X18990Y23057D01*
G01X19128Y23087D01*
G01X19197Y23101D01*
G01X19265Y23116D01*
G01X19333Y23130D01*
G01X19401Y23145D01*
G01X19469Y23159D01*
G01X19536Y23174D01*
G01X19603Y23188D01*
G01X19669Y23203D01*
G01X19736Y23217D01*
G01X19801Y23231D01*
G01X19867Y23246D01*
G01X19932Y23260D01*
G01X19997Y23275D01*
G01X20062Y23289D01*
G01X20190Y23317D01*
G01X20253Y23332D01*
G01X20379Y23360D01*
G01X20441Y23374D01*
G01X20503Y23389D01*
G01X20565Y23403D01*
G01X20748Y23445D01*
G01X20868Y23473D01*
G01X20986Y23501D01*
G01X21102Y23529D01*
G01X21160Y23542D01*
G01X21331Y23584D01*
G01X21387Y23597D01*
G01X21442Y23611D01*
G01X21498Y23625D01*
G01X21552Y23638D01*
G01X21607Y23652D01*
G01X21660Y23665D01*
G01X21714Y23679D01*
G01X21767Y23692D01*
G01X21819Y23706D01*
G01X21923Y23732D01*
G01X21974Y23745D01*
G01X22025Y23759D01*
G01X22075Y23772D01*
G01X22124Y23785D01*
G01X22174Y23798D01*
G01X22318Y23837D01*
G01X22365Y23850D01*
G01X22412Y23862D01*
G01X22504Y23888D01*
G01X22549Y23900D01*
G01X22594Y23913D01*
G01X22638Y23926D01*
G01X22682Y23938D01*
G01X22725Y23950D01*
G01X22767Y23963D01*
G01X22810Y23975D01*
G01X22892Y23999D01*
G01X22932Y24012D01*
G01X23012Y24036D01*
G01X23050Y24047D01*
G01X23089Y24059D01*
G01X23163Y24083D01*
G01X23200Y24094D01*
G01X23236Y24106D01*
G01X23271Y24118D01*
G01X23306Y24129D01*
G01X23340Y24140D01*
G01X23374Y24152D01*
G01X23407Y24163D01*
G01X23471Y24185D01*
G01X23533Y24207D01*
G01X23563Y24218D01*
G01X23621Y24240D01*
G01X23649Y24250D01*
G01X23677Y24261D01*
G01X23703Y24271D01*
G01X23730Y24282D01*
G01X23805Y24312D01*
G01X23874Y24342D01*
G01X23937Y24372D01*
G01X23956Y24381D01*
G01X23975Y24391D01*
G01X23994Y24400D01*
G01X24011Y24409D01*
G01X24028Y24419D01*
G01X24045Y24428D01*
G01X24075Y24446D01*
G01X24089Y24454D01*
G01X24103Y24463D01*
G01X24116Y24472D01*
G01X24128Y24480D01*
G01X24139Y24489D01*
G01X24150Y24497D01*
G01X24160Y24506D01*
G01X24169Y24514D01*
G01X24189Y24534D01*
G01X24201Y24548D01*
G01X24213Y24563D01*
G01X24224Y24580D01*
G01X24236Y24597D01*
G01X24258Y24635D01*
G01X24268Y24656D01*
G01X24279Y24678D01*
G01X24289Y24701D01*
G01X24309Y24751D01*
G01X24319Y24777D01*
G01X24328Y24805D01*
G01X24338Y24833D01*
G01X24356Y24893D01*
G01X24364Y24925D01*
G01X24373Y24957D01*
G01X24381Y24991D01*
G01X24397Y25061D01*
G01X24413Y25135D01*
G01X24427Y25213D01*
G01X24434Y25253D01*
G01X24448Y25337D01*
G01X24454Y25380D01*
G01X24461Y25424D01*
G01X24473Y25514D01*
G01X24479Y25561D01*
G01X24484Y25608D01*
G01X24489Y25656D01*
G01X24495Y25705D01*
G01X24500Y25755D01*
G01X24505Y25806D01*
G01X24509Y25857D01*
G01X24514Y25909D01*
G01X24518Y25962D01*
G01X24526Y26070D01*
G01X24530Y26125D01*
G01X24534Y26181D01*
G01X24540Y26295D01*
G01X24543Y26353D01*
G01X24549Y26471D01*
G01X24552Y26531D01*
G01X24556Y26653D01*
G01X24560Y26777D01*
G01X24562Y26840D01*
G01X24564Y26904D01*
G01X24565Y26968D01*
G01X24566Y27033D01*
G01X24569Y27231D01*
G01X24569Y27298D01*
G01X24570Y27366D01*
G01X24570Y27711D01*
G01X24569Y27781D01*
G01X24568Y27852D01*
G01X24568Y27923D01*
G01X24567Y27995D01*
G01X24565Y28067D01*
G01X24564Y28139D01*
G01X24563Y28212D01*
G01X24561Y28285D01*
G01X24555Y28507D01*
G01X24551Y28657D01*
G01X24548Y28732D01*
G01X24545Y28808D01*
G01X24542Y28883D01*
G01X24540Y28960D01*
G01X24536Y29036D01*
G01X24530Y29190D01*
G01X24522Y29344D01*
G01X24519Y29422D01*
G01X24515Y29499D01*
G01X24510Y29577D01*
G01X24506Y29655D01*
G01X24502Y29734D01*
G01X24497Y29812D01*
G01X24492Y29891D01*
G01X24488Y29969D01*
G01X24483Y30048D01*
G01X24477Y30127D01*
G01X24472Y30206D01*
G01X24467Y30286D01*
G01X24461Y30365D01*
G01X24456Y30444D01*
G01X24450Y30524D01*
G01X24444Y30603D01*
G01X24438Y30683D01*
G01X24432Y30762D01*
G01X24425Y30842D01*
G01X24419Y30921D01*
G01X24412Y31001D01*
G01X24405Y31080D01*
G01X24398Y31160D01*
G01X24384Y31318D01*
G01X24377Y31398D01*
G01X24370Y31477D01*
G01X24362Y31556D01*
G01X24355Y31635D01*
G01X24323Y31951D01*
G01X24314Y32029D01*
G01X24306Y32107D01*
G01X24298Y32186D01*
G01X24289Y32264D01*
G01X24280Y32341D01*
G01X24271Y32419D01*
G01X24262Y32496D01*
G01X24253Y32574D01*
G01X24244Y32651D01*
G01X24235Y32727D01*
G01X24225Y32804D01*
G01X24216Y32880D01*
G01X24206Y32956D01*
G01X24196Y33031D01*
G01X24186Y33107D01*
G01X24176Y33182D01*
G01X24166Y33256D01*
G01X24156Y33331D01*
G01X24146Y33405D01*
G01X24135Y33478D01*
G01X24124Y33552D01*
G01X24114Y33625D01*
G01X24070Y33913D01*
G01X24059Y33983D01*
G01X24047Y34054D01*
G01X24036Y34124D01*
G01X24024Y34194D01*
G01X24013Y34263D01*
G01X23977Y34467D01*
G01X23953Y34601D01*
G01X23941Y34667D01*
G01X23928Y34732D01*
G01X23916Y34797D01*
G01X23903Y34862D01*
G01X23890Y34925D01*
G01X23878Y34989D01*
G01X23839Y35175D01*
G01X23813Y35295D01*
G01X23799Y35355D01*
G01X23786Y35414D01*
G01X23772Y35472D01*
G01X23759Y35529D01*
G01X23745Y35586D01*
G01X23731Y35642D01*
G01X23703Y35752D01*
G01X23689Y35806D01*
G01X23675Y35859D01*
G01X23647Y35963D01*
G01X23632Y36013D01*
G01X23618Y36063D01*
G01X23603Y36113D01*
G01X23589Y36161D01*
G01X23559Y36255D01*
G01X23544Y36301D01*
G01X23529Y36346D01*
G01X23514Y36390D01*
G01X23484Y36476D01*
G01X23468Y36517D01*
G01X23441Y36590D01*
G01X23413Y36660D01*
G01X23386Y36728D01*
G01X23359Y36793D01*
G01X23331Y36856D01*
G01X23304Y36916D01*
G01X23276Y36973D01*
G01X23249Y37028D01*
G01X23221Y37080D01*
G01X23192Y37130D01*
G01X23164Y37177D01*
G01X23135Y37222D01*
G01X23105Y37264D01*
G01X23075Y37305D01*
G01X23044Y37342D01*
G01X23012Y37378D01*
G01X22980Y37411D01*
G01X22946Y37442D01*
G01X22912Y37471D01*
G01X22877Y37498D01*
G01X22840Y37522D01*
G01X22803Y37544D01*
G01X22764Y37564D01*
G01X22724Y37582D01*
G01X22683Y37598D01*
G01X22640Y37612D01*
G01X22596Y37624D01*
G01X22550Y37634D01*
G01X22503Y37642D01*
G01X22454Y37649D01*
G01X22403Y37653D01*
G01X22351Y37655D01*
G37*

%LPD*%
G54D18*
G01X36969Y37751D03*
G01X41262Y28542D03*
G54D19*
G01X45339Y7747D03*
G01X45339Y10287D03*
G01X42799Y7747D03*
G01X42799Y10287D03*
G01X40259Y7747D03*
G36*
G01X39357Y9385D02*
G01X39357Y11188D01*
G01X41160Y11188D01*
G01X41160Y9385D01*
G01X39357Y9385D01*
G37*
G36*
G01X21275Y21300D02*
G01X20909Y22666D01*
G01X22275Y23032D01*
G01X22641Y21666D01*
G01X21275Y21300D01*
G37*
G36*
G01X18872Y20655D02*
G01X18506Y22021D01*
G01X19872Y22387D01*
G01X20238Y21021D01*
G01X18872Y20655D01*
G37*
G36*
G01X8920Y19103D02*
G01X8920Y20518D01*
G01X10332Y20518D01*
G01X10335Y19103D01*
G01X8920Y19103D01*
G37*
G36*
G01X6431Y19103D02*
G01X6428Y20518D01*
G01X7846Y20518D01*
G01X7846Y19103D01*
G01X6431Y19103D01*
G37*
M00*
M02*
