G04 Layer: BottomSilkLayer*
G04 EasyEDA v6.1.51, Thu, 20 Jun 2019 01:18:00 GMT*
G04 13a2db1834074896a0e2ff3160756fa7,fc2bddda97e04f84aaf3dc2e9cb20b51,10*
G04 Gerber Generator version 0.2*
G04 Scale: 100 percent, Rotated: No, Reflected: No *
G04 Dimensions in millimeters *
G04 leading zeros omitted , absolute positions ,3 integer and 3 decimal *
%FSLAX33Y33*%
%MOMM*%
G90*
G71D02*

%ADD10C,0.254000*%
%ADD15C,0.203200*%
%ADD16C,0.200000*%
%ADD17C,0.202997*%

%LPD*%
G54D10*
G01X37296Y34344D02*
G01X39104Y35187D01*
G01X37557Y33905D02*
G01X39352Y34742D01*
G01X37748Y33434D02*
G01X39544Y34271D01*
G01X38874Y30960D02*
G01X40647Y31787D01*
G01X37153Y37358D02*
G01X37797Y35976D01*
G01X36646Y35440D01*
G01X36559Y35202D01*
G01X36805Y34675D01*
G01X37210Y34529D01*
G01X38959Y30778D01*
G01X38813Y30370D01*
G01X39092Y29771D01*
G01X39329Y29685D01*
G01X41401Y30651D01*
G01X41474Y30852D01*
G01X41216Y31406D01*
G01X40844Y31543D01*
G01X39040Y35411D01*
G01X39177Y35780D01*
G01X38919Y36332D01*
G01X38718Y36406D01*
G01X37797Y35976D01*
G01X40480Y30221D02*
G01X41124Y28840D01*
G54D15*
G01X46609Y11557D02*
G01X46609Y6477D01*
G01X38989Y6477D01*
G01X38989Y11557D01*
G01X46609Y11557D01*
G01X41740Y11557D01*
G01X7366Y18923D02*
G01X8541Y17747D01*
G01X46552Y15199D02*
G01X46552Y14108D01*
G01X46620Y13904D01*
G01X46689Y13836D01*
G01X46825Y13768D01*
G01X47030Y13768D01*
G01X47166Y13836D01*
G01X46552Y14995D02*
G01X46689Y15131D01*
G01X46825Y15199D01*
G01X47030Y15199D01*
G01X47166Y15131D01*
G01X47302Y14995D01*
G01X47371Y14790D01*
G01X47371Y14654D01*
G01X47302Y14449D01*
G01X47166Y14313D01*
G01X47030Y14245D01*
G01X46825Y14245D01*
G01X46689Y14313D01*
G01X46552Y14449D01*
G01X46102Y15677D02*
G01X46034Y15608D01*
G01X45966Y15677D01*
G01X46034Y15745D01*
G01X46102Y15677D01*
G01X46034Y15199D02*
G01X46034Y14245D01*
G01X45311Y15677D02*
G01X45311Y14518D01*
G01X45243Y14313D01*
G01X45107Y14245D01*
G01X44971Y14245D01*
G01X45516Y15199D02*
G01X45039Y15199D01*
G01X44452Y14586D02*
G01X44520Y14518D01*
G01X44452Y14449D01*
G01X44384Y14518D01*
G01X44452Y14586D01*
G01X43934Y15677D02*
G01X43866Y15608D01*
G01X43798Y15677D01*
G01X43866Y15745D01*
G01X43934Y15677D01*
G01X43866Y15199D02*
G01X43866Y14245D01*
G01X43007Y15199D02*
G01X43143Y15131D01*
G01X43280Y14995D01*
G01X43348Y14790D01*
G01X43348Y14654D01*
G01X43280Y14449D01*
G01X43143Y14313D01*
G01X43007Y14245D01*
G01X42802Y14245D01*
G01X42666Y14313D01*
G01X42530Y14449D01*
G01X42461Y14654D01*
G01X42461Y14790D01*
G01X42530Y14995D01*
G01X42666Y15131D01*
G01X42802Y15199D01*
G01X43007Y15199D01*
G01X40784Y15949D02*
G01X42011Y13768D01*
G01X39516Y15677D02*
G01X39516Y14245D01*
G01X39516Y14995D02*
G01X39652Y15131D01*
G01X39789Y15199D01*
G01X39993Y15199D01*
G01X40130Y15131D01*
G01X40266Y14995D01*
G01X40334Y14790D01*
G01X40334Y14654D01*
G01X40266Y14449D01*
G01X40130Y14313D01*
G01X39993Y14245D01*
G01X39789Y14245D01*
G01X39652Y14313D01*
G01X39516Y14449D01*
G01X38248Y14995D02*
G01X38384Y15131D01*
G01X38521Y15199D01*
G01X38725Y15199D01*
G01X38861Y15131D01*
G01X38998Y14995D01*
G01X39066Y14790D01*
G01X39066Y14654D01*
G01X38998Y14449D01*
G01X38861Y14313D01*
G01X38725Y14245D01*
G01X38521Y14245D01*
G01X38384Y14313D01*
G01X38248Y14449D01*
G01X37116Y15677D02*
G01X37798Y14722D01*
G01X36775Y14722D01*
G01X37116Y15677D02*
G01X37116Y14245D01*
G01X35916Y15677D02*
G01X36121Y15608D01*
G01X36257Y15404D01*
G01X36325Y15063D01*
G01X36325Y14859D01*
G01X36257Y14518D01*
G01X36121Y14313D01*
G01X35916Y14245D01*
G01X35780Y14245D01*
G01X35575Y14313D01*
G01X35439Y14518D01*
G01X35370Y14859D01*
G01X35370Y15063D01*
G01X35439Y15404D01*
G01X35575Y15608D01*
G01X35780Y15677D01*
G01X35916Y15677D01*
G01X34239Y15677D02*
G01X34921Y14722D01*
G01X33898Y14722D01*
G01X34239Y15677D02*
G01X34239Y14245D01*
G01X33448Y14859D02*
G01X32220Y14859D01*
G01X30952Y15677D02*
G01X30952Y14245D01*
G01X30952Y14995D02*
G01X31089Y15131D01*
G01X31225Y15199D01*
G01X31430Y15199D01*
G01X31566Y15131D01*
G01X31702Y14995D01*
G01X31771Y14790D01*
G01X31771Y14654D01*
G01X31702Y14449D01*
G01X31566Y14313D01*
G01X31430Y14245D01*
G01X31225Y14245D01*
G01X31089Y14313D01*
G01X30952Y14449D01*
G01X29684Y14995D02*
G01X29820Y15131D01*
G01X29957Y15199D01*
G01X30161Y15199D01*
G01X30298Y15131D01*
G01X30434Y14995D01*
G01X30502Y14790D01*
G01X30502Y14654D01*
G01X30434Y14449D01*
G01X30298Y14313D01*
G01X30161Y14245D01*
G01X29957Y14245D01*
G01X29820Y14313D01*
G01X29684Y14449D01*
G01X29166Y15336D02*
G01X29166Y15404D01*
G01X29098Y15540D01*
G01X29030Y15608D01*
G01X28893Y15677D01*
G01X28620Y15677D01*
G01X28484Y15608D01*
G01X28416Y15540D01*
G01X28348Y15404D01*
G01X28348Y15268D01*
G01X28416Y15131D01*
G01X28552Y14927D01*
G01X29234Y14245D01*
G01X28280Y14245D01*
G01X26875Y15677D02*
G01X27557Y14245D01*
G01X27830Y15677D02*
G01X26875Y15677D01*
G01X26425Y14859D02*
G01X25198Y14859D01*
G01X23998Y14995D02*
G01X24066Y15131D01*
G01X24270Y15199D01*
G01X24475Y15199D01*
G01X24680Y15131D01*
G01X24748Y14995D01*
G01X24680Y14859D01*
G01X24543Y14790D01*
G01X24202Y14722D01*
G01X24066Y14654D01*
G01X23998Y14518D01*
G01X23998Y14449D01*
G01X24066Y14313D01*
G01X24270Y14245D01*
G01X24475Y14245D01*
G01X24680Y14313D01*
G01X24748Y14449D01*
G01X22730Y15199D02*
G01X22730Y14245D01*
G01X22730Y14995D02*
G01X22866Y15131D01*
G01X23002Y15199D01*
G01X23207Y15199D01*
G01X23343Y15131D01*
G01X23480Y14995D01*
G01X23548Y14790D01*
G01X23548Y14654D01*
G01X23480Y14449D01*
G01X23343Y14313D01*
G01X23207Y14245D01*
G01X23002Y14245D01*
G01X22866Y14313D01*
G01X22730Y14449D01*
G01X21939Y15199D02*
G01X22075Y15131D01*
G01X22211Y14995D01*
G01X22280Y14790D01*
G01X22280Y14654D01*
G01X22211Y14449D01*
G01X22075Y14313D01*
G01X21939Y14245D01*
G01X21734Y14245D01*
G01X21598Y14313D01*
G01X21461Y14449D01*
G01X21393Y14654D01*
G01X21393Y14790D01*
G01X21461Y14995D01*
G01X21598Y15131D01*
G01X21734Y15199D01*
G01X21939Y15199D01*
G54D16*
G01X47371Y18344D02*
G01X47371Y16912D01*
G01X47371Y18344D02*
G01X46825Y16912D01*
G01X46280Y18344D02*
G01X46825Y16912D01*
G01X46280Y18344D02*
G01X46280Y16912D01*
G01X45830Y17866D02*
G01X45830Y16912D01*
G01X45830Y17457D02*
G01X45761Y17662D01*
G01X45625Y17798D01*
G01X45489Y17866D01*
G01X45284Y17866D01*
G01X44766Y17253D02*
G01X44834Y17185D01*
G01X44766Y17116D01*
G01X44698Y17185D01*
G01X44766Y17253D01*
G01X43198Y18344D02*
G01X43198Y16912D01*
G01X43198Y18344D02*
G01X42311Y18344D01*
G01X43198Y17662D02*
G01X42652Y17662D01*
G01X41043Y17866D02*
G01X41043Y16912D01*
G01X41043Y17662D02*
G01X41180Y17798D01*
G01X41316Y17866D01*
G01X41520Y17866D01*
G01X41657Y17798D01*
G01X41793Y17662D01*
G01X41861Y17457D01*
G01X41861Y17321D01*
G01X41793Y17116D01*
G01X41657Y16980D01*
G01X41520Y16912D01*
G01X41316Y16912D01*
G01X41180Y16980D01*
G01X41043Y17116D01*
G01X40593Y17866D02*
G01X40593Y16912D01*
G01X40593Y17594D02*
G01X40389Y17798D01*
G01X40252Y17866D01*
G01X40048Y17866D01*
G01X39911Y17798D01*
G01X39843Y17594D01*
G01X39843Y16912D01*
G01X38575Y17866D02*
G01X38575Y16775D01*
G01X38643Y16571D01*
G01X38711Y16503D01*
G01X38848Y16435D01*
G01X39052Y16435D01*
G01X39189Y16503D01*
G01X38575Y17662D02*
G01X38711Y17798D01*
G01X38848Y17866D01*
G01X39052Y17866D01*
G01X39189Y17798D01*
G01X39325Y17662D01*
G01X39393Y17457D01*
G01X39393Y17321D01*
G01X39325Y17116D01*
G01X39189Y16980D01*
G01X39052Y16912D01*
G01X38848Y16912D01*
G01X38711Y16980D01*
G01X38575Y17116D01*
G01X36121Y18139D02*
G01X36257Y18275D01*
G01X36461Y18344D01*
G01X36734Y18344D01*
G01X36939Y18275D01*
G01X37075Y18139D01*
G01X37075Y18003D01*
G01X37007Y17866D01*
G01X36939Y17798D01*
G01X36802Y17730D01*
G01X36393Y17594D01*
G01X36257Y17526D01*
G01X36189Y17457D01*
G01X36121Y17321D01*
G01X36121Y17116D01*
G01X36257Y16980D01*
G01X36461Y16912D01*
G01X36734Y16912D01*
G01X36939Y16980D01*
G01X37075Y17116D01*
G01X35670Y18344D02*
G01X35670Y16912D01*
G01X35670Y17594D02*
G01X35466Y17798D01*
G01X35330Y17866D01*
G01X35125Y17866D01*
G01X34989Y17798D01*
G01X34921Y17594D01*
G01X34921Y16912D01*
G01X34471Y18344D02*
G01X34402Y18275D01*
G01X34334Y18344D01*
G01X34402Y18412D01*
G01X34471Y18344D01*
G01X34402Y17866D02*
G01X34402Y16912D01*
G01X33680Y18344D02*
G01X33680Y17185D01*
G01X33611Y16980D01*
G01X33475Y16912D01*
G01X33339Y16912D01*
G01X33884Y17866D02*
G01X33407Y17866D01*
G01X32684Y18344D02*
G01X32684Y17185D01*
G01X32616Y16980D01*
G01X32480Y16912D01*
G01X32343Y16912D01*
G01X32889Y17866D02*
G01X32411Y17866D01*
G01X31825Y17866D02*
G01X31416Y16912D01*
G01X31007Y17866D02*
G01X31416Y16912D01*
G01X31552Y16639D01*
G01X31689Y16503D01*
G01X31825Y16435D01*
G01X31893Y16435D01*
G01X28961Y18344D02*
G01X29507Y16912D01*
G01X28961Y18344D02*
G01X28416Y16912D01*
G01X29302Y17389D02*
G01X28620Y17389D01*
G01X27148Y18344D02*
G01X27148Y16912D01*
G01X27148Y17662D02*
G01X27284Y17798D01*
G01X27421Y17866D01*
G01X27625Y17866D01*
G01X27761Y17798D01*
G01X27898Y17662D01*
G01X27966Y17457D01*
G01X27966Y17321D01*
G01X27898Y17116D01*
G01X27761Y16980D01*
G01X27625Y16912D01*
G01X27421Y16912D01*
G01X27284Y16980D01*
G01X27148Y17116D01*
G01X25880Y18344D02*
G01X25880Y16912D01*
G01X25880Y17662D02*
G01X26016Y17798D01*
G01X26152Y17866D01*
G01X26357Y17866D01*
G01X26493Y17798D01*
G01X26630Y17662D01*
G01X26698Y17457D01*
G01X26698Y17321D01*
G01X26630Y17116D01*
G01X26493Y16980D01*
G01X26357Y16912D01*
G01X26152Y16912D01*
G01X26016Y16980D01*
G01X25880Y17116D01*
G01X25430Y17526D02*
G01X24202Y17526D01*
G01X23343Y18344D02*
G01X23480Y18275D01*
G01X23616Y18139D01*
G01X23684Y18003D01*
G01X23752Y17798D01*
G01X23752Y17457D01*
G01X23684Y17253D01*
G01X23616Y17116D01*
G01X23480Y16980D01*
G01X23343Y16912D01*
G01X23070Y16912D01*
G01X22934Y16980D01*
G01X22798Y17116D01*
G01X22730Y17253D01*
G01X22661Y17457D01*
G01X22661Y17798D01*
G01X22730Y18003D01*
G01X22798Y18139D01*
G01X22934Y18275D01*
G01X23070Y18344D01*
G01X23343Y18344D01*
G01X22211Y17866D02*
G01X22211Y16912D01*
G01X22211Y17594D02*
G01X22007Y17798D01*
G01X21871Y17866D01*
G01X21666Y17866D01*
G01X21530Y17798D01*
G01X21461Y17594D01*
G01X21461Y16912D01*
G54D15*
G01X46355Y21011D02*
G01X46355Y19579D01*
G01X46355Y21011D02*
G01X45877Y21011D01*
G01X45673Y20943D01*
G01X45536Y20806D01*
G01X45468Y20670D01*
G01X45400Y20465D01*
G01X45400Y20124D01*
G01X45468Y19920D01*
G01X45536Y19783D01*
G01X45673Y19647D01*
G01X45877Y19579D01*
G01X46355Y19579D01*
G01X43927Y20670D02*
G01X43995Y20806D01*
G01X44132Y20943D01*
G01X44268Y21011D01*
G01X44541Y21011D01*
G01X44677Y20943D01*
G01X44814Y20806D01*
G01X44882Y20670D01*
G01X44950Y20465D01*
G01X44950Y20124D01*
G01X44882Y19920D01*
G01X44814Y19783D01*
G01X44677Y19647D01*
G01X44541Y19579D01*
G01X44268Y19579D01*
G01X44132Y19647D01*
G01X43995Y19783D01*
G01X43927Y19920D01*
G01X42795Y21011D02*
G01X43477Y20056D01*
G01X42455Y20056D01*
G01X42795Y21011D02*
G01X42795Y19579D01*
G01X41595Y21011D02*
G01X41800Y20943D01*
G01X41936Y20738D01*
G01X42005Y20397D01*
G01X42005Y20193D01*
G01X41936Y19852D01*
G01X41800Y19647D01*
G01X41595Y19579D01*
G01X41459Y19579D01*
G01X41255Y19647D01*
G01X41118Y19852D01*
G01X41050Y20193D01*
G01X41050Y20397D01*
G01X41118Y20738D01*
G01X41255Y20943D01*
G01X41459Y21011D01*
G01X41595Y21011D01*
G01X39918Y21011D02*
G01X40600Y20056D01*
G01X39577Y20056D01*
G01X39918Y21011D02*
G01X39918Y19579D01*
G01X38077Y21011D02*
G01X38077Y19579D01*
G01X38077Y21011D02*
G01X37600Y21011D01*
G01X37395Y20943D01*
G01X37259Y20806D01*
G01X37191Y20670D01*
G01X37123Y20465D01*
G01X37123Y20124D01*
G01X37191Y19920D01*
G01X37259Y19783D01*
G01X37395Y19647D01*
G01X37600Y19579D01*
G01X38077Y19579D01*
G01X36673Y21011D02*
G01X36673Y19579D01*
G01X36673Y21011D02*
G01X35786Y21011D01*
G01X36673Y20329D02*
G01X36127Y20329D01*
G01X36673Y19579D02*
G01X35786Y19579D01*
G01X35336Y21011D02*
G01X35336Y19579D01*
G01X35336Y21011D02*
G01X34450Y21011D01*
G01X35336Y20329D02*
G01X34791Y20329D01*
G01X31927Y20670D02*
G01X31995Y20806D01*
G01X32132Y20943D01*
G01X32268Y21011D01*
G01X32541Y21011D01*
G01X32677Y20943D01*
G01X32814Y20806D01*
G01X32882Y20670D01*
G01X32950Y20465D01*
G01X32950Y20124D01*
G01X32882Y19920D01*
G01X32814Y19783D01*
G01X32677Y19647D01*
G01X32541Y19579D01*
G01X32268Y19579D01*
G01X32132Y19647D01*
G01X31995Y19783D01*
G01X31927Y19920D01*
G01X31068Y21011D02*
G01X31205Y20943D01*
G01X31341Y20806D01*
G01X31409Y20670D01*
G01X31477Y20465D01*
G01X31477Y20124D01*
G01X31409Y19920D01*
G01X31341Y19783D01*
G01X31205Y19647D01*
G01X31068Y19579D01*
G01X30795Y19579D01*
G01X30659Y19647D01*
G01X30523Y19783D01*
G01X30455Y19920D01*
G01X30386Y20124D01*
G01X30386Y20465D01*
G01X30455Y20670D01*
G01X30523Y20806D01*
G01X30659Y20943D01*
G01X30795Y21011D01*
G01X31068Y21011D01*
G01X29936Y21011D02*
G01X29936Y19579D01*
G01X29936Y21011D02*
G01X28982Y19579D01*
G01X28982Y21011D02*
G01X28982Y19579D01*
G01X27414Y20670D02*
G01X27414Y20738D01*
G01X27345Y20874D01*
G01X27277Y20943D01*
G01X27141Y21011D01*
G01X26868Y21011D01*
G01X26732Y20943D01*
G01X26664Y20874D01*
G01X26595Y20738D01*
G01X26595Y20602D01*
G01X26664Y20465D01*
G01X26800Y20261D01*
G01X27482Y19579D01*
G01X26527Y19579D01*
G01X25123Y21011D02*
G01X25805Y19579D01*
G01X26077Y21011D02*
G01X25123Y21011D01*
G54D17*
G01X55605Y14732D02*
G01X56022Y14136D01*
G01X56137Y14050D01*
G01X56200Y14039D01*
G01X56301Y14054D01*
G01X56375Y14106D01*
G01X56424Y14195D01*
G01X56435Y14259D01*
G01X56394Y14396D01*
G01X56342Y14471D01*
G01X55359Y14559D02*
G01X55906Y13778D01*
G01X55906Y13778D02*
G01X55460Y13465D01*
G01X54238Y13497D02*
G01X54223Y13598D01*
G01X54246Y13724D01*
G01X54294Y13814D01*
G01X54443Y13918D01*
G01X54543Y13933D01*
G01X54670Y13911D01*
G01X54759Y13862D01*
G01X54875Y13777D01*
G01X55005Y13590D01*
G01X55046Y13453D01*
G01X55061Y13352D01*
G01X55039Y13226D01*
G01X54990Y13136D01*
G01X54841Y13032D01*
G01X54741Y13017D01*
G01X54614Y13039D01*
G01X54525Y13088D01*
G01X53490Y13251D02*
G01X53907Y12655D01*
G01X54022Y12569D01*
G01X54086Y12558D01*
G01X54186Y12573D01*
G01X54261Y12625D01*
G01X54309Y12715D01*
G01X54320Y12778D01*
G01X54279Y12916D01*
G01X54227Y12990D01*
G01X53244Y13079D02*
G01X53791Y12297D01*
G01X53791Y12297D02*
G01X53345Y11984D01*
G01X52123Y12016D02*
G01X52108Y12117D01*
G01X52131Y12244D01*
G01X52179Y12333D01*
G01X52328Y12437D01*
G01X52429Y12452D01*
G01X52555Y12430D01*
G01X52644Y12381D01*
G01X52760Y12296D01*
G01X52890Y12110D01*
G01X52931Y11972D01*
G01X52946Y11871D01*
G01X52924Y11745D01*
G01X52875Y11655D01*
G01X52727Y11551D01*
G01X52626Y11536D01*
G01X52499Y11558D01*
G01X52410Y11607D01*
G01X51375Y11770D02*
G01X51792Y11174D01*
G01X51907Y11088D01*
G01X51971Y11077D01*
G01X52071Y11092D01*
G01X52146Y11144D01*
G01X52194Y11234D01*
G01X52205Y11297D01*
G01X52164Y11435D01*
G01X52112Y11509D01*
G01X51129Y11598D02*
G01X51677Y10816D01*
G01X51677Y10816D02*
G01X51230Y10503D01*
G01X50008Y10535D02*
G01X49993Y10636D01*
G01X50016Y10763D01*
G01X50064Y10852D01*
G01X50213Y10956D01*
G01X50314Y10971D01*
G01X50440Y10949D01*
G01X50530Y10901D01*
G01X50645Y10815D01*
G01X50775Y10629D01*
G01X50816Y10491D01*
G01X50831Y10390D01*
G01X50809Y10264D01*
G01X50761Y10174D01*
G01X50612Y10070D01*
G01X50511Y10055D01*
G01X50384Y10078D01*
G01X50295Y10126D01*
G01X49260Y10289D02*
G01X49677Y9693D01*
G01X49792Y9608D01*
G01X49856Y9596D01*
G01X49956Y9611D01*
G01X50031Y9663D01*
G01X50079Y9753D01*
G01X50090Y9816D01*
G01X50049Y9954D01*
G01X49997Y10028D01*
G01X49014Y10117D02*
G01X49562Y9335D01*
G01X49562Y9335D02*
G01X49115Y9022D01*
G01X47893Y9055D02*
G01X47878Y9155D01*
G01X47901Y9282D01*
G01X47949Y9371D01*
G01X48098Y9475D01*
G01X48199Y9490D01*
G01X48325Y9468D01*
G01X48415Y9420D01*
G01X48530Y9334D01*
G01X48660Y9148D01*
G01X48701Y9010D01*
G01X48716Y8910D01*
G01X48694Y8783D01*
G01X48646Y8694D01*
G01X48497Y8589D01*
G01X48396Y8574D01*
G01X48270Y8597D01*
G01X48180Y8645D01*
G54D15*
G01X18601Y20446D02*
G01X17907Y19752D01*
G54D17*
G01X16402Y19565D02*
G01X16477Y19700D01*
G01X16619Y19797D01*
G01X16829Y19858D01*
G01X17001Y19850D01*
G01X17136Y19775D01*
G01X17166Y19671D01*
G01X17144Y19551D01*
G01X17106Y19483D01*
G01X17017Y19401D01*
G01X16732Y19206D01*
G01X16642Y19123D01*
G01X16605Y19056D01*
G01X16583Y18936D01*
G01X16628Y18778D01*
G01X16763Y18704D01*
G01X16935Y18696D01*
G01X17145Y18756D01*
G01X17287Y18854D01*
G01X17362Y18989D01*
G01X16011Y19623D02*
G01X16327Y18522D01*
G01X16176Y19046D02*
G01X15974Y19158D01*
G01X15854Y19181D01*
G01X15697Y19136D01*
G01X15607Y19053D01*
G01X15600Y18881D01*
G01X15750Y18357D01*
G01X14931Y18916D02*
G01X15051Y18894D01*
G01X15186Y18819D01*
G01X15284Y18677D01*
G01X15314Y18572D01*
G01X15306Y18400D01*
G01X15232Y18265D01*
G01X15142Y18182D01*
G01X14984Y18137D01*
G01X14864Y18159D01*
G01X14730Y18234D01*
G01X14632Y18376D01*
G01X14602Y18481D01*
G01X14609Y18654D01*
G01X14684Y18789D01*
G01X14774Y18871D01*
G01X14931Y18916D01*
G01X14166Y18697D02*
G01X14376Y17963D01*
G01X14256Y18382D02*
G01X14158Y18524D01*
G01X14023Y18599D01*
G01X13904Y18621D01*
G01X13746Y18576D01*
G01X13138Y18799D02*
G01X13393Y17908D01*
G01X13386Y17735D01*
G01X13296Y17653D01*
G01X13191Y17623D01*
G01X13400Y18477D02*
G01X13033Y18372D01*
G01X11722Y18393D02*
G01X12038Y17292D01*
G01X11571Y17612D02*
G01X10942Y17432D01*
G01X10912Y17537D01*
G01X10934Y17657D01*
G01X10972Y17724D01*
G01X11062Y17807D01*
G01X11219Y17852D01*
G01X11339Y17829D01*
G01X11474Y17755D01*
G01X11571Y17612D01*
G01X11601Y17507D01*
G01X11594Y17335D01*
G01X11519Y17200D01*
G01X11430Y17118D01*
G01X11272Y17073D01*
G01X11152Y17095D01*
G01X11017Y17170D01*
G01X9877Y17467D02*
G01X10087Y16733D01*
G01X9922Y17310D02*
G01X9997Y17444D01*
G01X10086Y17527D01*
G01X10244Y17572D01*
G01X10364Y17550D01*
G01X10499Y17475D01*
G01X10596Y17333D01*
G01X10626Y17228D01*
G01X10619Y17055D01*
G01X10544Y16920D01*
G01X10454Y16838D01*
G01X10297Y16793D01*
G01X10177Y16815D01*
G01X10042Y16890D01*
G01X8796Y17554D02*
G01X9112Y16453D01*
G01X8947Y17030D02*
G01X9021Y17165D01*
G01X9111Y17247D01*
G01X9269Y17292D01*
G01X9388Y17270D01*
G01X9523Y17195D01*
G01X9621Y17053D01*
G01X9651Y16948D01*
G01X9644Y16776D01*
G01X9569Y16641D01*
G01X9479Y16558D01*
G01X9322Y16513D01*
G01X9202Y16536D01*
G01X9067Y16610D01*
G54D10*
G75*
G01X40386Y12192D02*
G03X40386Y12192I-127J0D01*
G01*
M00*
M02*
